<svg width="72" height="72" viewBox="0 0 72 72" fill="none" xmlns="http://www.w3.org/2000/svg">
<path d="M72 36C72 55.8823 55.8823 72 36 72C16.1177 72 0 55.8823 0 36C0 16.1177 16.1177 0 36 0C55.8823 0 72 16.1177 72 36Z" fill="#214251"/>
<mask id="mask0" style="mask-type:alpha" maskUnits="userSpaceOnUse" x="0" y="0" width="72" height="72">
<path d="M72 36C72 55.8823 55.8822 72 36 72C16.1177 72 0 55.8823 0 36C0 16.1177 16.1177 0 36 0C55.8822 0 72 16.1177 72 36Z" fill="#52A7CC"/>
</mask>
<g mask="url(#mask0)">
<g filter="url(#filter0_i)">
<path fill-rule="evenodd" clip-rule="evenodd" d="M46.9151 -3.9884C47.6686 -3.9884 48.2795 -3.37753 48.2795 -2.62397V9.76087C48.2795 10.5144 47.6686 11.1253 46.9151 11.1253C46.1615 11.1253 45.5506 10.5144 45.5506 9.76087V-2.62397C45.5506 -3.37753 46.1615 -3.9884 46.9151 -3.9884ZM46.915 13.0145C47.6686 13.0145 48.2795 13.6254 48.2795 14.3789V20.7813C48.2795 21.5348 47.6686 22.1457 46.915 22.1457C46.1615 22.1457 45.5506 21.5348 45.5506 20.7813V14.3789C45.5506 13.6254 46.1615 13.0145 46.915 13.0145ZM51.1133 19.4168C51.8669 19.4168 52.4777 20.0277 52.4777 20.7813V45.0262C52.4777 45.7797 51.8669 46.3906 51.1133 46.3906C50.3598 46.3906 49.7489 45.7797 49.7489 45.0262V20.7813C49.7489 20.0277 50.3598 19.4168 51.1133 19.4168ZM46.9153 23.825C47.6688 23.8251 48.2796 24.4361 48.2795 25.1896L48.2795 25.2946C48.2794 26.0482 47.6684 26.6589 46.9148 26.6588C46.1613 26.6587 45.5505 26.0477 45.5506 25.2942L45.5506 25.1892C45.5507 24.4357 46.1617 23.8249 46.9153 23.825ZM46.915 28.548C47.6686 28.548 48.2795 29.1589 48.2795 29.9125V35.895C48.2795 36.6485 47.6686 37.2594 46.915 37.2594C46.1615 37.2594 45.5506 36.6485 45.5506 35.895V29.9125C45.5506 29.1589 46.1615 28.548 46.915 28.548ZM46.9151 39.3585C47.6686 39.3585 48.2795 39.9694 48.2795 40.723V46.9154C48.2795 55.7483 42.6924 60.8189 36.6114 61.0312C30.507 61.2443 24.5594 56.5532 23.8289 47.3381C23.7694 46.5869 24.3301 45.9296 25.0813 45.8701C25.8325 45.8105 26.4897 46.3712 26.5493 47.1224C27.1832 55.1201 32.0986 58.4582 36.5161 58.304C40.957 58.1489 45.5506 54.4556 45.5506 46.9154V40.723C45.5506 39.9694 46.1615 39.3585 46.9151 39.3585ZM19.5215 47.2303C19.5215 46.4767 20.1324 45.8658 20.8859 45.8658H20.9909C21.7444 45.8658 22.3553 46.4767 22.3553 47.2303C22.3553 47.9838 21.7444 48.5947 20.9909 48.5947H20.8859C20.1324 48.5947 19.5215 47.9838 19.5215 47.2303ZM51.0923 48.3979C51.8386 48.5022 52.359 49.1918 52.2547 49.9381C50.801 60.3376 43.6694 65.4912 36.3041 65.5058C29.0047 65.5202 21.7147 60.4701 19.9648 51.1557C19.8256 50.4151 20.3132 49.7019 21.0538 49.5628C21.7944 49.4236 22.5076 49.9112 22.6467 50.6518C24.1504 58.6552 30.2949 62.7887 36.2987 62.7769C42.2365 62.7652 48.2769 58.6827 49.5521 49.5603C49.6564 48.814 50.346 48.2936 51.0923 48.3979Z" fill="url(#paint0_linear)"/>
</g>
<path d="M39.4141 65.673C44.3742 64.6559 49.066 59.6441 48.8272 52.7044L46.863 56.1009C46.2088 62.5349 42.9149 64.4127 39.4141 65.673Z" fill="#214251"/>
<path d="M24.3507 54.4303C27.4078 58.4666 33.9532 60.5376 40.1111 57.3288L36.1995 57.0217C30.1127 59.2068 26.9978 57.0451 24.3507 54.4303Z" fill="#214251"/>
</g>
<defs>
<filter id="filter0_i" x="19.5215" y="-3.9884" width="32.9563" height="73.4942" filterUnits="userSpaceOnUse" color-interpolation-filters="sRGB">
<feFlood flood-opacity="0" result="BackgroundImageFix"/>
<feBlend mode="normal" in="SourceGraphic" in2="BackgroundImageFix" result="shape"/>
<feColorMatrix in="SourceAlpha" type="matrix" values="0 0 0 0 0 0 0 0 0 0 0 0 0 0 0 0 0 0 127 0" result="hardAlpha"/>
<feOffset dy="4"/>
<feGaussianBlur stdDeviation="2"/>
<feComposite in2="hardAlpha" operator="arithmetic" k2="-1" k3="1"/>
<feColorMatrix type="matrix" values="0 0 0 0 0 0 0 0 0 0 0 0 0 0 0 0 0 0 0.25 0"/>
<feBlend mode="normal" in2="shape" result="effect1_innerShadow"/>
</filter>
<linearGradient id="paint0_linear" x1="36.1046" y1="73.2595" x2="74.7746" y2="26.2414" gradientUnits="userSpaceOnUse">
<stop stop-color="#FFA1B0"/>
<stop offset="0.333333" stop-color="#D79F9C"/>
<stop offset="0.703125" stop-color="#74BCB4"/>
<stop offset="1" stop-color="#52A7CC"/>
</linearGradient>
</defs>
</svg>
