<svg width="343" height="362" viewBox="0 0 343 362" fill="none" xmlns="http://www.w3.org/2000/svg">
<circle cx="171.5" cy="190.5" r="171.5" fill="#214251"/>
<g filter="url(#filter0_i)">
<path d="M126.48 243.486C126.196 239.908 123.065 237.237 119.486 237.52C115.908 237.804 113.237 240.935 113.52 244.514L126.48 243.486ZM100 250.5C103.59 250.5 106.5 247.59 106.5 244C106.5 240.41 103.59 237.5 100 237.5V250.5ZM99.5 237.5C95.9101 237.5 93 240.41 93 244C93 247.59 95.9101 250.5 99.5 250.5V237.5ZM230 6.5C230 2.91015 227.09 0 223.5 0C219.91 0 217 2.91015 217 6.5H230ZM107.888 260.3C107.225 256.772 103.828 254.449 100.3 255.112C96.7717 255.775 94.4489 259.172 95.1118 262.7L107.888 260.3ZM248.937 256.9C249.434 253.345 246.955 250.06 243.4 249.563C239.844 249.066 236.559 251.545 236.063 255.1L248.937 256.9ZM230 87.5C230 83.9101 227.09 81 223.5 81C219.91 81 217 83.9101 217 87.5H230ZM217 190C217 193.59 219.91 196.5 223.5 196.5C227.09 196.5 230 193.59 230 190H217ZM217 118C217 121.59 219.91 124.5 223.5 124.5C227.09 124.5 230 121.59 230 118H217ZM230 161.5C230 157.91 227.09 155 223.5 155C219.91 155 217 157.91 217 161.5H230ZM217 139.499C216.999 143.089 219.909 145.999 223.499 146C227.089 146.001 229.999 143.091 230 139.501L217 139.499ZM230 139.001C230 135.411 227.091 132.501 223.501 132.5C219.911 132.499 217 135.409 217 138.999L230 139.001ZM217 65.5C217 69.0899 219.91 72 223.5 72C227.09 72 230 69.0899 230 65.5H217ZM230 213C230 209.41 227.09 206.5 223.5 206.5C219.91 206.5 217 209.41 217 213H230ZM250 118C250 114.41 247.09 111.5 243.5 111.5C239.91 111.5 237 114.41 237 118H250ZM237 233.5C237 237.09 239.91 240 243.5 240C247.09 240 250 237.09 250 233.5H237ZM113.52 244.514C117 288.413 145.334 310.761 174.414 309.746C203.384 308.735 230 284.579 230 242.5H217C217 278.421 195.116 296.015 173.961 296.754C152.916 297.489 129.5 281.587 126.48 243.486L113.52 244.514ZM100 237.5H99.5V250.5H100V237.5ZM95.1118 262.7C103.448 307.073 138.177 331.131 172.95 331.062C208.038 330.993 242.012 306.442 248.937 256.9L236.063 255.1C229.988 298.558 201.212 318.007 172.925 318.062C144.323 318.119 115.052 298.427 107.888 260.3L95.1118 262.7ZM217 87.5V118H230V87.5H217ZM217 161.5V190H230V161.5H217ZM217 138.999L217 139.499L230 139.501L230 139.001L217 138.999ZM230 242.5V213H217V242.5H230ZM230 65.5V36H217V65.5H230ZM230 36V6.5H217V36H230ZM237 118V233.5H250V118H237Z" fill="url(#paint0_linear)"/>
</g>
<path d="M187.762 331.858C211.392 327.013 233.743 303.137 232.605 270.077L223.248 286.258C220.131 316.909 204.44 325.854 187.762 331.858Z" fill="#214251"/>
<path d="M116 278.3C130.564 297.528 161.745 307.394 191.081 292.108L172.447 290.645C143.45 301.055 128.611 290.756 116 278.3Z" fill="#214251"/>
<defs>
<filter id="filter0_i" x="93" y="0" width="157" height="335.063" filterUnits="userSpaceOnUse" color-interpolation-filters="sRGB">
<feFlood flood-opacity="0" result="BackgroundImageFix"/>
<feBlend mode="normal" in="SourceGraphic" in2="BackgroundImageFix" result="shape"/>
<feColorMatrix in="SourceAlpha" type="matrix" values="0 0 0 0 0 0 0 0 0 0 0 0 0 0 0 0 0 0 127 0" result="hardAlpha"/>
<feOffset dy="4"/>
<feGaussianBlur stdDeviation="2"/>
<feComposite in2="hardAlpha" operator="arithmetic" k2="-1" k3="1"/>
<feColorMatrix type="matrix" values="0 0 0 0 0 0 0 0 0 0 0 0 0 0 0 0 0 0 0.25 0"/>
<feBlend mode="normal" in2="shape" result="effect1_innerShadow"/>
</filter>
<linearGradient id="paint0_linear" x1="172" y1="368" x2="356.219" y2="144.011" gradientUnits="userSpaceOnUse">
<stop stop-color="#FFA1B0"/>
<stop offset="0.333333" stop-color="#D79F9C"/>
<stop offset="0.703125" stop-color="#74BCB4"/>
<stop offset="1" stop-color="#52A7CC"/>
</linearGradient>
</defs>
</svg>
