<svg width="59" height="59" viewBox="0 0 59 59" fill="none" xmlns="http://www.w3.org/2000/svg">
<g clip-path="url(#clip0)">
<path d="M24.192 39.492L16.414 41.613L18.536 33.835L48.362 4.00903H0V58.009H54V9.68503L24.192 39.492Z" fill="#EDEADA"/>
<path d="M18.716 39.311C19.107 39.702 19.107 40.334 18.716 40.725L18.358 41.083L24.151 39.503L18.524 33.876L16.944 39.668L17.302 39.31C17.693 38.92 18.326 38.92 18.716 39.311Z" fill="#F7E6A1"/>
<path d="M18.358 41.0829L18.716 40.7249C19.107 40.3339 19.107 39.702 18.716 39.311C18.325 38.92 17.693 38.92 17.302 39.311L16.944 39.6689L16.414 41.6129L18.358 41.0829Z" fill="#424A60"/>
<path d="M51.062 12.622L45.406 6.96497L18.536 33.835L18.524 33.876L24.151 39.503L24.192 39.492L51.062 12.622Z" fill="#EBBA16"/>
<path d="M57.437 3.44004L54.587 0.590039C53.812 -0.184961 52.555 -0.184961 51.78 0.590039L48.234 4.13604L53.891 9.79304L57.437 6.24704C58.212 5.47204 58.212 4.21504 57.437 3.44004Z" fill="#ED7161"/>
<path d="M53.8906 9.79266L48.2338 4.13586L45.4054 6.96426L51.0622 12.6211L53.8906 9.79266Z" fill="#F7E6A1"/>
</g>
<defs>
<clipPath id="clip0">
<rect width="58.018" height="58.018" fill="white"/>
</clipPath>
</defs>
</svg>
