<svg width="258" height="309" viewBox="0 0 258 309" fill="none" xmlns="http://www.w3.org/2000/svg">
<path d="M250.5 286.5L257 301.5L243 308" stroke="#45BAFC" stroke-miterlimit="3.23955" stroke-linecap="round"/>
<path d="M232.099 1.49C232.37 1.43507 232.545 1.17115 232.49 0.900525C232.435 0.629903 232.171 0.455057 231.9 0.509995L232.099 1.49ZM118.5 106L118.998 105.96L118.5 106ZM12.9999 99L12.5796 98.7291L12.9999 99ZM87.9999 261.5L88.1149 261.013L87.9999 261.5ZM256.816 301.965C257.073 302.067 257.363 301.941 257.465 301.684C257.566 301.427 257.441 301.137 257.184 301.035L256.816 301.965ZM231.9 0.509995C228.427 1.2152 224.995 1.99667 221.611 2.85164L221.856 3.82117C225.224 2.97008 228.641 2.1921 232.099 1.49L231.9 0.509995ZM201.448 9.01311C194.686 11.4589 188.194 14.2146 182.026 17.2534L182.468 18.1504C188.601 15.1286 195.059 12.3872 201.788 9.95348L201.448 9.01311ZM163.72 27.741C157.672 31.7593 152.097 36.0951 147.073 40.7118L147.75 41.4481C152.732 36.8695 158.265 32.5656 164.273 28.574L163.72 27.741ZM132.958 56.4103C128.696 62.271 125.245 68.4427 122.716 74.8712L123.647 75.2372C126.142 68.8945 129.55 62.7968 133.767 56.9984L132.958 56.4103ZM117.967 95.4453C117.709 98.9293 117.715 102.463 118.002 106.04L118.998 105.96C118.716 102.435 118.71 98.9521 118.964 95.5193L117.967 95.4453ZM118.002 106.04C118.347 110.355 119.238 114.199 120.565 117.581L121.496 117.215C120.208 113.933 119.336 110.186 118.998 105.96L118.002 106.04ZM136.607 134.261C144.014 137.318 152.483 137.229 159.814 134.246L159.437 133.32C152.341 136.207 144.145 136.29 136.989 133.336L136.607 134.261ZM175.922 117.665C177.19 114.215 177.899 110.32 177.899 106H176.899C176.899 110.21 176.208 113.987 174.983 117.32L175.922 117.665ZM177.899 106C177.899 102.765 177.046 99.5535 175.473 96.4285L174.58 96.8782C176.094 99.8863 176.899 102.945 176.899 106H177.899ZM162.348 81.898C157.542 78.3155 151.804 75.0294 145.402 72.173L144.994 73.0862C151.341 75.9179 157.013 79.1684 161.751 82.6998L162.348 81.898ZM126.954 65.6714C120.812 64.0147 114.365 62.7362 107.767 61.914L107.643 62.9063C114.195 63.7228 120.596 64.9922 126.694 66.6369L126.954 65.6714ZM88.2414 60.8812C81.718 61.0145 75.1872 61.6446 68.7856 62.8426L68.9695 63.8256C75.3129 62.6384 81.7888 62.0133 88.2618 61.881L88.2414 60.8812ZM49.9923 68.257C43.9415 70.6892 38.1608 73.7717 32.7912 77.5774L33.3695 78.3933C38.6704 74.6362 44.3813 71.5902 50.3653 69.1848L49.9923 68.257ZM18.4062 90.8194C16.3395 93.2816 14.3926 95.9159 12.5796 98.7291L13.4202 99.2709C15.2105 96.4927 17.1325 93.8923 19.1722 91.4623L18.4062 90.8194ZM12.5796 98.7291C10.7343 101.593 9.10483 104.619 7.68713 107.783L8.5997 108.192C9.99779 105.072 11.6035 102.09 13.4202 99.2709L12.5796 98.7291ZM1.81795 127.446C0.692254 134.03 0.249269 140.91 0.465406 147.931L1.46493 147.9C1.25069 140.941 1.69004 134.128 2.80364 127.615L1.81795 127.446ZM2.86901 168.303C4.21492 174.921 6.10669 181.534 8.52662 188.02L9.46354 187.67C7.06168 181.233 5.18436 174.67 3.84895 168.104L2.86901 168.303ZM17.1579 206.629C20.4981 212.572 24.3208 218.283 28.6099 223.649L29.391 223.025C25.1369 217.703 21.3444 212.037 18.0296 206.139L17.1579 206.629ZM42.7556 238.508C47.8634 242.997 53.4063 247.046 59.3692 250.546L59.8754 249.684C53.9697 246.217 48.478 242.206 43.4157 237.757L42.7556 238.508ZM78.003 259.127C81.207 260.231 84.5016 261.187 87.885 261.987L88.1149 261.013C84.7639 260.222 81.5013 259.274 78.3285 258.182L78.003 259.127ZM87.885 261.987C91.5513 262.853 95.0925 263.647 98.526 264.381L98.7352 263.404C95.3084 262.671 91.7742 261.878 88.1149 261.013L87.885 261.987ZM119.91 268.493C127.412 269.785 134.495 270.865 141.418 271.903L141.567 270.914C134.645 269.876 127.571 268.798 120.079 267.507L119.91 268.493ZM162.912 275.221C169.825 276.366 176.855 277.65 184.27 279.247L184.481 278.269C177.046 276.668 169.999 275.381 163.076 274.234L162.912 275.221ZM205.379 284.433C211.877 286.228 218.758 288.31 226.147 290.759L226.462 289.81C219.057 287.355 212.16 285.269 205.645 283.469L205.379 284.433ZM246.634 298.03C249.929 299.272 253.321 300.582 256.816 301.965L257.184 301.035C253.684 299.65 250.287 298.338 246.986 297.095L246.634 298.03Z" fill="#45BAFC"/>
</svg>
