<svg width="53" height="53" viewBox="0 0 53 53" fill="none" xmlns="http://www.w3.org/2000/svg">
<path d="M12.821 46.638C23.522 48.485 29.48 48.485 40.181 46.638L49.671 45C44.986 40.343 42.354 34.585 42.354 28V19C42.392 12.953 38.397 8.52204 34.408 6.69904C29.409 4.41404 23.593 4.40504 18.602 6.70704C14.648 8.53004 10.367 12.958 10.329 19V28C10.329 34.585 8.01399 40.343 3.32899 45L12.821 46.638Z" fill="#E7ECED"/>
<path d="M15.329 20C15.327 20 15.325 20 15.323 20C14.771 19.996 14.326 19.546 14.329 18.994C14.359 14.312 18.081 11.351 20.277 10.34C24.126 8.56502 28.871 8.56802 32.746 10.338C33.248 10.567 33.469 11.16 33.24 11.663C33.01 12.165 32.417 12.387 31.914 12.156C28.561 10.623 24.445 10.619 21.115 12.156C19.348 12.97 16.353 15.329 16.33 19.006C16.326 19.557 15.879 20 15.329 20Z" fill="white"/>
<path d="M30.329 5.381V4C30.329 1.791 28.538 0 26.329 0C24.12 0 22.329 1.791 22.329 4V5.453C24.958 4.862 27.69 4.841 30.329 5.381Z" fill="#C7CAC7"/>
<path d="M18.235 47.46C19.68 50.728 22.837 53 26.512 53C30.188 53 33.346 50.727 34.79 47.457C28.862 48.209 24.159 48.21 18.235 47.46Z" fill="#C7CAC7"/>
</svg>
