<svg width="243" height="344" viewBox="0 0 243 344" fill="none" xmlns="http://www.w3.org/2000/svg">
<path d="M243 117C243 181.617 188.603 234 121.5 234C54.3974 234 0 181.617 0 117C0 52.3827 54.3974 0 121.5 0C188.603 0 243 52.3827 243 117Z" fill="#214251"/>
<mask id="mask0" mask-type="alpha" maskUnits="userSpaceOnUse" x="0" y="0" width="243" height="234">
<path d="M243 117C243 181.617 188.603 234 121.5 234C54.3974 234 0 181.617 0 117C0 52.3827 54.3974 0 121.5 0C188.603 0 243 52.3827 243 117Z" fill="#52A7CC"/>
</mask>
<g mask="url(#mask0)">
<g filter="url(#filter0_i)">
<path fill-rule="evenodd" clip-rule="evenodd" d="M158.34 -12.9621C160.883 -12.9621 162.945 -10.9767 162.945 -8.52769V31.723C162.945 34.1721 160.883 36.1574 158.34 36.1574C155.796 36.1574 153.735 34.1721 153.735 31.723V-8.52769C153.735 -10.9767 155.796 -12.9621 158.34 -12.9621ZM158.339 42.2974C160.883 42.2974 162.944 44.2827 162.944 46.7318V67.5394C162.944 69.9884 160.883 71.9738 158.339 71.9738C155.796 71.9738 153.734 69.9884 153.734 67.5394V46.7318C153.734 44.2827 155.796 42.2974 158.339 42.2974ZM172.509 63.105C175.052 63.105 177.114 65.0903 177.114 67.5394V146.335C177.114 148.784 175.052 150.77 172.509 150.77C169.965 150.77 167.904 148.784 167.904 146.335V67.5394C167.904 65.0903 169.965 63.105 172.509 63.105ZM158.34 77.4315C160.883 77.4319 162.945 79.4175 162.945 81.8666L162.944 82.2077C162.944 84.6567 160.882 86.6418 158.339 86.6414C155.796 86.641 153.734 84.6554 153.735 82.2063L153.735 81.8652C153.735 79.4162 155.797 77.4311 158.34 77.4315ZM158.339 92.7813C160.883 92.7813 162.944 94.7667 162.944 97.2157V116.659C162.944 119.108 160.883 121.093 158.339 121.093C155.796 121.093 153.734 119.108 153.734 116.659V97.2157C153.734 94.7667 155.796 92.7813 158.339 92.7813ZM158.34 127.915C160.883 127.915 162.945 129.901 162.945 132.35V152.475C162.945 181.182 144.088 197.662 123.565 198.352C102.962 199.044 82.8892 183.798 80.4239 153.849C80.2229 151.408 82.1153 149.272 84.6506 149.078C87.1859 148.884 89.404 150.707 89.605 153.148C91.7446 179.141 108.334 189.989 123.243 189.488C138.231 188.984 153.735 176.981 153.735 152.475V132.35C153.735 129.901 155.796 127.915 158.34 127.915ZM65.8862 153.499C65.8862 151.049 67.9479 149.064 70.4912 149.064H70.8454C73.3887 149.064 75.4504 151.049 75.4504 153.499C75.4504 155.948 73.3887 157.933 70.8454 157.933H70.4912C67.9479 157.933 65.8862 155.948 65.8862 153.499ZM172.438 157.293C174.956 157.632 176.713 159.874 176.361 162.299C171.455 196.097 147.386 212.847 122.527 212.894C97.8919 212.941 73.2885 196.528 67.3823 166.256C66.9127 163.849 68.5583 161.531 71.0578 161.079C73.5573 160.627 75.9643 162.212 76.4339 164.619C81.5087 190.63 102.246 204.064 122.509 204.025C142.549 203.987 162.936 190.719 167.24 161.071C167.592 158.646 169.919 156.954 172.438 157.293Z" fill="url(#paint0_linear)"/>
</g>
<path d="M133.021 213.437C149.762 210.131 165.597 193.843 164.791 171.289L158.161 182.328C155.954 203.238 144.837 209.341 133.021 213.437Z" fill="#214251"/>
<path d="M82.1802 176.898C92.498 190.016 114.589 196.747 135.372 186.318L122.17 185.32C101.627 192.422 91.1142 185.396 82.1802 176.898Z" fill="#214251"/>
</g>
<path d="M41.4698 343.512C39.9338 343.464 38.8058 342.888 38.0858 341.784C37.3658 340.704 37.3058 339.444 37.9058 338.004C38.0978 337.476 38.3498 336.984 38.6618 336.528C38.9738 336.096 39.3818 335.7 39.8858 335.34C40.3898 334.98 40.8458 334.68 41.2538 334.44C41.6618 334.2 42.2378 333.936 42.9818 333.648C43.7258 333.384 44.2898 333.192 44.6738 333.072C45.0578 332.952 45.6578 332.76 46.4738 332.496C49.4498 321.432 51.3458 314.436 52.1618 311.508C51.2498 312.516 50.0858 313.38 48.6698 314.1C47.2538 314.82 46.0778 315.456 45.1418 316.008C44.2298 316.536 43.6898 317.196 43.5218 317.988C43.1618 319.524 43.6538 320.388 44.9978 320.58C45.2138 320.604 45.3458 320.772 45.3938 321.084C45.4418 321.372 45.3818 321.66 45.2138 321.948C45.0458 322.236 44.8058 322.368 44.4938 322.344C42.9098 322.272 41.7818 321.768 41.1098 320.832C40.4378 319.872 40.2458 318.816 40.5338 317.664C40.7978 316.584 41.4218 315.684 42.4058 314.964C43.3898 314.244 44.4458 313.704 45.5738 313.344C46.7258 312.984 48.0218 312.408 49.4618 311.616C50.9018 310.8 52.0898 309.804 53.0258 308.628C53.2418 308.268 53.6018 308.052 54.1058 307.98C54.6098 307.884 55.0538 307.932 55.4378 308.124C55.8218 308.316 55.9898 308.568 55.9418 308.88C55.3178 310.824 53.2058 318.384 49.6058 331.56C51.0698 331.176 52.4618 330.408 53.7818 329.256C55.1258 328.08 56.1938 326.556 56.9858 324.684C57.0578 324.588 57.1898 324.564 57.3818 324.612C57.5738 324.636 57.7538 324.732 57.9218 324.9C58.0898 325.044 58.1498 325.188 58.1018 325.332C57.6938 326.388 57.1778 327.36 56.5538 328.248C55.9298 329.112 55.3418 329.808 54.7898 330.336C54.2618 330.84 53.5898 331.332 52.7738 331.812C51.9818 332.268 51.3578 332.592 50.9018 332.784C50.4458 332.976 49.8338 333.216 49.0658 333.504C48.3218 336.6 47.6738 338.688 47.1218 339.768C45.8978 342.336 44.0138 343.584 41.4698 343.512ZM41.5418 341.352C42.0938 341.4 42.6578 341.208 43.2338 340.776C43.8098 340.368 44.2898 339.744 44.6738 338.904C45.1538 337.92 45.5858 336.432 45.9698 334.44C42.7538 335.52 40.8338 336.876 40.2098 338.508C39.8978 339.396 39.8858 340.08 40.1738 340.56C40.4618 341.064 40.9178 341.328 41.5418 341.352ZM65.3021 317.7C67.2461 317.652 68.6141 318.276 69.4061 319.572C70.2221 320.868 70.4861 322.416 70.1981 324.216C69.9101 326.016 69.2621 327.756 68.2541 329.436C70.6541 329.676 72.5381 328.092 73.9061 324.684C73.9781 324.588 74.1101 324.564 74.3021 324.612C74.5181 324.636 74.7101 324.732 74.8781 324.9C75.0461 325.044 75.0941 325.2 75.0221 325.368C73.1501 329.784 70.5221 331.56 67.1381 330.696C65.5301 332.448 63.6101 333.324 61.3781 333.324C59.6741 333.324 58.3421 332.76 57.3821 331.632C56.4221 330.504 56.1581 328.728 56.5901 326.304C56.9981 323.904 58.0301 321.888 59.6861 320.256C61.3421 318.624 63.2141 317.772 65.3021 317.7ZM65.0141 319.824C63.7901 319.896 62.6501 320.628 61.5941 322.02C60.5621 323.412 59.9141 324.876 59.6501 326.412C59.1461 329.628 59.8781 331.236 61.8461 331.236C62.9501 331.236 63.9821 330.696 64.9421 329.616C64.5821 329.112 64.5581 328.62 64.8701 328.14C65.2061 327.66 65.6021 327.516 66.0581 327.708C66.4901 326.796 66.8141 325.884 67.0301 324.972C67.2701 324.036 67.3781 323.172 67.3541 322.38C67.3541 321.588 67.1501 320.952 66.7421 320.472C66.3581 319.992 65.7821 319.776 65.0141 319.824ZM78.0002 315.54C77.5202 315.54 77.1242 315.384 76.8122 315.072C76.5242 314.736 76.4042 314.316 76.4522 313.812C76.5002 313.284 76.7042 312.864 77.0642 312.552C77.4242 312.24 77.8562 312.084 78.3602 312.084C78.8642 312.108 79.2602 312.276 79.5482 312.588C79.8362 312.9 79.9682 313.308 79.9442 313.812C79.8962 314.34 79.6922 314.76 79.3322 315.072C78.9722 315.384 78.5282 315.54 78.0002 315.54ZM75.2642 333.324C74.0642 333.348 73.2842 333 72.9242 332.28C72.5402 331.56 72.5042 330.492 72.8162 329.076C73.2482 327.252 74.2082 323.676 75.6962 318.348C75.8882 317.94 76.3922 317.808 77.2082 317.952C78.0242 318.072 78.4442 318.324 78.4682 318.708C76.9562 324.084 76.0442 327.432 75.7322 328.752C75.5162 329.496 75.4322 330.12 75.4802 330.624C75.5282 331.104 75.7682 331.332 76.2002 331.308C77.0642 331.284 78.0482 330.6 79.1522 329.256C80.2562 327.888 81.1322 326.376 81.7802 324.72C81.8762 324.6 82.0202 324.552 82.2122 324.576C82.4042 324.6 82.5842 324.708 82.7522 324.9C82.9202 325.068 82.9682 325.236 82.8962 325.404C82.4882 326.34 82.0442 327.228 81.5642 328.068C81.0842 328.908 80.5202 329.748 79.8722 330.588C79.2242 331.428 78.4922 332.1 77.6762 332.604C76.8842 333.084 76.0802 333.324 75.2642 333.324ZM91.6352 317.7C92.9312 317.724 93.7832 318.216 94.1912 319.176C94.6232 320.112 94.6472 321.36 94.2632 322.92C94.1432 323.496 93.8912 324.408 93.5072 325.656C93.1232 326.88 92.8592 327.792 92.7152 328.392C92.6192 328.848 92.5472 329.196 92.4992 329.436C92.4512 329.676 92.4152 329.964 92.3912 330.3C92.3912 330.636 92.4392 330.888 92.5352 331.056C92.6552 331.224 92.8352 331.308 93.0752 331.308C93.8432 331.308 94.7312 330.66 95.7392 329.364C96.7712 328.068 97.6592 326.508 98.4032 324.684C98.4752 324.588 98.6072 324.552 98.7992 324.576C98.9912 324.6 99.1712 324.696 99.3392 324.864C99.5072 325.032 99.5552 325.2 99.4832 325.368C99.0752 326.328 98.6312 327.228 98.1512 328.068C97.6952 328.884 97.1552 329.724 96.5312 330.588C95.9312 331.428 95.2592 332.1 94.5152 332.604C93.7712 333.108 93.0152 333.36 92.2472 333.36C90.1352 333.36 89.2352 332.244 89.5472 330.012C89.5952 329.508 90.1472 327.084 91.2032 322.74C91.6592 320.964 91.3832 320.076 90.3752 320.076C89.6312 320.076 88.7192 320.556 87.6392 321.516C86.5592 322.452 85.6112 323.544 84.7952 324.792C84.1952 326.832 83.5352 329.436 82.8152 332.604C82.7432 332.772 82.5392 332.904 82.2032 333C81.8912 333.072 81.5552 333.096 81.1952 333.072C80.8112 333.072 80.4752 333 80.1872 332.856C79.8992 332.712 79.7672 332.508 79.7912 332.244C80.1752 330.708 80.7632 328.488 81.5552 325.584C82.3232 322.68 82.9472 320.268 83.4272 318.348C83.6192 317.916 84.1232 317.76 84.9392 317.88C85.7792 317.976 86.2112 318.276 86.2352 318.78L85.3352 322.164C86.1752 321.012 87.1592 319.98 88.2872 319.068C89.4152 318.132 90.5312 317.676 91.6352 317.7ZM115.69 308.196C117.01 307.836 118.366 307.776 119.758 308.016C121.174 308.256 122.362 308.604 123.322 309.06C124.306 309.516 125.398 309.948 126.598 310.356C127.822 310.764 128.89 310.956 129.802 310.932C132.034 310.884 133.258 309.96 133.474 308.16C133.546 307.824 133.846 307.68 134.374 307.728C134.902 307.776 135.214 307.956 135.31 308.268C135.406 309.132 135.274 309.96 134.914 310.752C134.554 311.52 134.062 312.084 133.438 312.444C131.614 313.524 129.094 313.548 125.878 312.516C125.638 313.308 125.398 314.136 125.158 315C124.942 315.864 124.63 317.076 124.222 318.636C123.838 320.196 123.442 321.756 123.034 323.316C122.626 324.732 122.266 325.896 121.954 326.808C121.666 327.72 121.294 328.632 120.838 329.544C120.406 330.456 119.938 331.164 119.434 331.668C118.93 332.148 118.318 332.556 117.598 332.892C116.902 333.204 116.098 333.36 115.186 333.36C113.242 333.384 111.826 332.808 110.938 331.632C110.074 330.456 109.798 329.148 110.11 327.708C110.398 326.412 111.106 325.344 112.234 324.504C112.546 324.264 112.93 324.312 113.386 324.648C113.842 324.984 114.01 325.32 113.89 325.656C112.906 326.928 112.594 328.176 112.954 329.4C113.314 330.624 114.202 331.224 115.618 331.2C116.314 331.176 116.938 330.792 117.49 330.048C118.066 329.304 118.498 328.5 118.786 327.636C119.098 326.772 119.458 325.608 119.866 324.144C120.442 322.104 120.97 320.16 121.45 318.312C121.954 316.44 122.338 315.012 122.602 314.028C122.866 313.044 123.094 312.216 123.286 311.544C121.87 310.944 120.67 310.524 119.686 310.284C118.702 310.02 117.73 309.996 116.77 310.212C115.498 310.476 114.706 311.112 114.394 312.12C114.106 313.008 114.286 313.704 114.934 314.208C115.75 314.832 116.89 314.748 118.354 313.956C118.69 313.812 118.99 313.956 119.254 314.388C119.518 314.796 119.542 315.12 119.326 315.36C118.438 316.032 117.538 316.476 116.626 316.692C115.738 316.908 114.958 316.92 114.286 316.728C113.614 316.536 113.026 316.212 112.522 315.756C112.042 315.276 111.706 314.7 111.514 314.028C111.154 312.876 111.334 311.724 112.054 310.572C112.774 309.42 113.986 308.628 115.69 308.196ZM135.052 317.7C136.996 317.652 138.364 318.276 139.156 319.572C139.972 320.868 140.236 322.416 139.948 324.216C139.66 326.016 139.012 327.756 138.004 329.436C140.404 329.676 142.288 328.092 143.656 324.684C143.728 324.588 143.86 324.564 144.052 324.612C144.268 324.636 144.46 324.732 144.628 324.9C144.796 325.044 144.844 325.2 144.772 325.368C142.9 329.784 140.272 331.56 136.888 330.696C135.28 332.448 133.36 333.324 131.128 333.324C129.424 333.324 128.092 332.76 127.132 331.632C126.172 330.504 125.908 328.728 126.34 326.304C126.748 323.904 127.78 321.888 129.436 320.256C131.092 318.624 132.964 317.772 135.052 317.7ZM134.764 319.824C133.54 319.896 132.4 320.628 131.344 322.02C130.312 323.412 129.664 324.876 129.4 326.412C128.896 329.628 129.628 331.236 131.596 331.236C132.7 331.236 133.732 330.696 134.692 329.616C134.332 329.112 134.308 328.62 134.62 328.14C134.956 327.66 135.352 327.516 135.808 327.708C136.24 326.796 136.564 325.884 136.78 324.972C137.02 324.036 137.128 323.172 137.104 322.38C137.104 321.588 136.9 320.952 136.492 320.472C136.108 319.992 135.532 319.776 134.764 319.824ZM169.684 307.908C173.092 308.004 175.804 309.168 177.82 311.4C179.836 313.632 180.808 316.476 180.736 319.932C180.664 323.724 179.74 326.94 177.964 329.58C176.188 332.22 173.788 333.468 170.764 333.324C168.148 333.204 165.916 332.352 164.068 330.768C162.844 332.448 161.248 333.312 159.28 333.36C157.696 333.384 156.496 333.036 155.68 332.316C154.864 331.572 154.504 330.66 154.6 329.58C154.72 328.308 155.248 327.372 156.184 326.772C157.144 326.148 158.248 325.92 159.496 326.088C160.744 326.232 161.908 326.688 162.988 327.456C163.348 326.496 163.888 324.744 164.608 322.2C165.328 319.632 166.024 317.532 166.696 315.9C167.392 314.244 168.196 313.044 169.108 312.3C169.396 312.132 169.72 312.072 170.08 312.12C170.44 312.144 170.74 312.264 170.98 312.48C171.22 312.696 171.28 312.912 171.16 313.128C170.272 314.112 169.468 315.648 168.748 317.736C168.028 319.8 167.356 321.948 166.732 324.18C166.132 326.412 165.58 327.984 165.076 328.896C165.796 329.52 166.72 330.048 167.848 330.48C168.976 330.888 170.032 331.092 171.016 331.092C172.408 331.068 173.62 330.528 174.652 329.472C175.708 328.392 176.488 327.024 176.992 325.368C177.496 323.712 177.76 321.9 177.784 319.932C177.832 317.052 177.136 314.7 175.696 312.876C174.28 311.028 172.108 310.104 169.18 310.104C167.908 310.104 166.696 310.392 165.544 310.968C164.416 311.544 163.54 312.276 162.916 313.164C162.316 314.052 161.956 315.036 161.836 316.116C161.716 317.172 162.04 318.204 162.808 319.212C163 319.524 162.832 319.896 162.304 320.328C161.8 320.736 161.332 320.796 160.9 320.508C159.58 319.308 158.92 317.88 158.92 316.224C158.92 314.544 159.496 313.008 160.648 311.616C161.632 310.416 162.916 309.492 164.5 308.844C166.108 308.172 167.836 307.86 169.684 307.908ZM159.424 327.96C158.56 327.888 157.912 328.128 157.48 328.68C157.072 329.232 157.024 329.808 157.336 330.408C157.672 331.008 158.308 331.308 159.244 331.308C159.868 331.308 160.396 331.14 160.828 330.804C161.26 330.444 161.74 329.904 162.268 329.184C161.212 328.44 160.264 328.032 159.424 327.96ZM191.478 317.7C193.422 317.652 194.79 318.276 195.582 319.572C196.398 320.868 196.662 322.416 196.374 324.216C196.086 326.016 195.438 327.756 194.43 329.436C196.83 329.676 198.714 328.092 200.082 324.684C200.154 324.588 200.286 324.564 200.478 324.612C200.694 324.636 200.886 324.732 201.054 324.9C201.222 325.044 201.27 325.2 201.198 325.368C199.326 329.784 196.698 331.56 193.314 330.696C191.706 332.448 189.786 333.324 187.554 333.324C185.85 333.324 184.518 332.76 183.558 331.632C182.598 330.504 182.334 328.728 182.766 326.304C183.174 323.904 184.206 321.888 185.862 320.256C187.518 318.624 189.39 317.772 191.478 317.7ZM191.19 319.824C189.966 319.896 188.826 320.628 187.77 322.02C186.738 323.412 186.09 324.876 185.826 326.412C185.322 329.628 186.054 331.236 188.022 331.236C189.126 331.236 190.158 330.696 191.118 329.616C190.758 329.112 190.734 328.62 191.046 328.14C191.382 327.66 191.778 327.516 192.234 327.708C192.666 326.796 192.99 325.884 193.206 324.972C193.446 324.036 193.554 323.172 193.53 322.38C193.53 321.588 193.326 320.952 192.918 320.472C192.534 319.992 191.958 319.776 191.19 319.824Z" fill="url(#paint1_linear)"/>
<defs>
<filter id="filter0_i" x="65.8862" y="-12.9621" width="111.227" height="229.856" filterUnits="userSpaceOnUse" color-interpolation-filters="sRGB">
<feFlood flood-opacity="0" result="BackgroundImageFix"/>
<feBlend mode="normal" in="SourceGraphic" in2="BackgroundImageFix" result="shape"/>
<feColorMatrix in="SourceAlpha" type="matrix" values="0 0 0 0 0 0 0 0 0 0 0 0 0 0 0 0 0 0 127 0" result="hardAlpha"/>
<feOffset dy="4"/>
<feGaussianBlur stdDeviation="2"/>
<feComposite in2="hardAlpha" operator="arithmetic" k2="-1" k3="1"/>
<feColorMatrix type="matrix" values="0 0 0 0 0 0 0 0 0 0 0 0 0 0 0 0 0 0 0.25 0"/>
<feBlend mode="normal" in2="shape" result="effect1_innerShadow"/>
</filter>
<linearGradient id="paint0_linear" x1="121.854" y1="238.094" x2="246.534" y2="80.6666" gradientUnits="userSpaceOnUse">
<stop stop-color="#FFA1B0"/>
<stop offset="0.333333" stop-color="#D79F9C"/>
<stop offset="0.703125" stop-color="#74BCB4"/>
<stop offset="1" stop-color="#52A7CC"/>
</linearGradient>
<linearGradient id="paint1_linear" x1="62.0985" y1="337.189" x2="76.6257" y2="281.754" gradientUnits="userSpaceOnUse">
<stop stop-color="#FFA1B0"/>
<stop offset="0.536458" stop-color="#D79F9C"/>
<stop offset="1" stop-color="#74BCB4"/>
</linearGradient>
</defs>
</svg>
